<svg width="160" height="37" viewBox="0 0 160 37" fill="none" xmlns="http://www.w3.org/2000/svg">
<rect width="66" height="37" rx="4" fill="#5D5FEF"/>
<path d="M8.544 13.672C8.81067 13.6827 9.168 13.6933 9.616 13.704C10.0747 13.7147 10.528 13.72 10.976 13.72C11.488 13.72 11.984 13.7147 12.464 13.704C12.944 13.6933 13.2853 13.688 13.488 13.688C14.48 13.688 15.3013 13.8 15.952 14.024C16.6133 14.2373 17.104 14.552 17.424 14.968C17.7547 15.384 17.92 15.8853 17.92 16.472C17.92 16.8347 17.8453 17.2027 17.696 17.576C17.5467 17.9387 17.2907 18.28 16.928 18.6C16.576 18.9093 16.0907 19.16 15.472 19.352C14.8533 19.5333 14.0747 19.624 13.136 19.624H11.6V19.304H12.976C13.6053 19.304 14.08 19.1867 14.4 18.952C14.7307 18.7067 14.9547 18.3867 15.072 17.992C15.2 17.5867 15.264 17.1387 15.264 16.648C15.264 15.8053 15.1147 15.1547 14.816 14.696C14.5173 14.2267 14.0053 13.992 13.28 13.992C12.864 13.992 12.592 14.0827 12.464 14.264C12.3467 14.4453 12.288 14.8133 12.288 15.368V23.304C12.288 23.688 12.3147 23.976 12.368 24.168C12.432 24.36 12.5493 24.488 12.72 24.552C12.8907 24.616 13.1467 24.6587 13.488 24.68V25C13.2 24.9787 12.8373 24.968 12.4 24.968C11.9627 24.9573 11.52 24.952 11.072 24.952C10.56 24.952 10.0747 24.9573 9.616 24.968C9.168 24.968 8.81067 24.9787 8.544 25V24.68C8.88533 24.6587 9.14133 24.616 9.312 24.552C9.48267 24.488 9.59467 24.36 9.648 24.168C9.712 23.976 9.744 23.688 9.744 23.304V15.368C9.744 14.9733 9.712 14.6853 9.648 14.504C9.59467 14.312 9.47733 14.184 9.296 14.12C9.12533 14.0453 8.87467 14.0027 8.544 13.992V13.672ZM11.568 19.352C12.0267 19.3627 12.4213 19.384 12.752 19.416C13.0933 19.448 13.392 19.48 13.648 19.512C13.904 19.5333 14.1333 19.5493 14.336 19.56C15.3067 19.6453 16.0213 19.8533 16.48 20.184C16.9493 20.5147 17.2533 21.0107 17.392 21.672L17.76 23.32C17.856 23.7467 17.9573 24.0453 18.064 24.216C18.1707 24.3867 18.3253 24.472 18.528 24.472C18.6667 24.4613 18.7787 24.4293 18.864 24.376C18.96 24.312 19.0613 24.2213 19.168 24.104L19.392 24.296C19.104 24.6267 18.7947 24.8613 18.464 25C18.1333 25.1493 17.7333 25.224 17.264 25.224C16.688 25.224 16.2133 25.1013 15.84 24.856C15.4667 24.6107 15.2213 24.1573 15.104 23.496L14.816 21.896C14.7413 21.448 14.6507 21.0587 14.544 20.728C14.4373 20.3867 14.288 20.12 14.096 19.928C13.9147 19.7253 13.6587 19.624 13.328 19.624H11.6L11.568 19.352ZM21.5421 12.6C21.9901 12.6 22.3421 12.712 22.5981 12.936C22.8648 13.1493 22.9981 13.448 22.9981 13.832C22.9981 14.216 22.8648 14.52 22.5981 14.744C22.3421 14.9573 21.9901 15.064 21.5421 15.064C21.0941 15.064 20.7368 14.9573 20.4701 14.744C20.2141 14.52 20.0861 14.216 20.0861 13.832C20.0861 13.448 20.2141 13.1493 20.4701 12.936C20.7368 12.712 21.0941 12.6 21.5421 12.6ZM22.7901 16.552V23.512C22.7901 23.96 22.8648 24.264 23.0141 24.424C23.1741 24.584 23.4408 24.664 23.8141 24.664V25C23.6221 24.9893 23.3235 24.9787 22.9181 24.968C22.5128 24.9467 22.1021 24.936 21.6861 24.936C21.2701 24.936 20.8488 24.9467 20.4221 24.968C19.9955 24.9787 19.6755 24.9893 19.4621 25V24.664C19.8355 24.664 20.0968 24.584 20.2461 24.424C20.4061 24.264 20.4861 23.96 20.4861 23.512V18.472C20.4861 17.992 20.4115 17.64 20.2621 17.416C20.1235 17.1813 19.8568 17.064 19.4621 17.064V16.728C19.8035 16.76 20.1341 16.776 20.4541 16.776C20.9021 16.776 21.3181 16.76 21.7021 16.728C22.0968 16.6853 22.4595 16.6267 22.7901 16.552ZM27.677 16.504C28.125 16.504 28.5143 16.5627 28.845 16.68C29.1863 16.7867 29.4317 16.8933 29.581 17C29.9437 17.2453 30.1677 17.0853 30.253 16.52H30.589C30.5677 16.8187 30.5517 17.1867 30.541 17.624C30.5303 18.0507 30.525 18.6213 30.525 19.336H30.189C30.1357 18.9413 30.0343 18.552 29.885 18.168C29.7357 17.784 29.517 17.4693 29.229 17.224C28.9517 16.9787 28.589 16.856 28.141 16.856C27.8317 16.856 27.5703 16.9467 27.357 17.128C27.1437 17.2987 27.037 17.5493 27.037 17.88C27.037 18.2 27.133 18.4827 27.325 18.728C27.517 18.9627 27.7623 19.192 28.061 19.416C28.3703 19.6293 28.6903 19.8587 29.021 20.104C29.373 20.3707 29.693 20.6373 29.981 20.904C30.269 21.16 30.4983 21.4427 30.669 21.752C30.8397 22.0613 30.925 22.4293 30.925 22.856C30.925 23.336 30.7863 23.7573 30.509 24.12C30.2317 24.472 29.8637 24.744 29.405 24.936C28.957 25.128 28.4557 25.224 27.901 25.224C27.581 25.224 27.293 25.192 27.037 25.128C26.7917 25.064 26.5783 24.984 26.397 24.888C26.2583 24.824 26.125 24.7653 25.997 24.712C25.8797 24.648 25.7677 24.5947 25.661 24.552C25.5543 24.52 25.4583 24.5573 25.373 24.664C25.2983 24.7707 25.2397 24.92 25.197 25.112H24.861C24.8823 24.7707 24.8983 24.3547 24.909 23.864C24.9197 23.3733 24.925 22.7227 24.925 21.912H25.261C25.325 22.488 25.4423 23 25.613 23.448C25.7837 23.8853 26.013 24.232 26.301 24.488C26.5997 24.7333 26.973 24.856 27.421 24.856C27.6023 24.856 27.7783 24.8187 27.949 24.744C28.1197 24.6693 28.2583 24.5467 28.365 24.376C28.4823 24.2053 28.541 23.9867 28.541 23.72C28.541 23.2507 28.3863 22.8613 28.077 22.552C27.7783 22.2427 27.3943 21.9067 26.925 21.544C26.5837 21.2667 26.2583 20.9947 25.949 20.728C25.6503 20.4507 25.405 20.152 25.213 19.832C25.021 19.5013 24.925 19.128 24.925 18.712C24.925 18.232 25.053 17.8267 25.309 17.496C25.565 17.1653 25.901 16.92 26.317 16.76C26.7437 16.5893 27.197 16.504 27.677 16.504ZM34.1076 25.112C33.6276 25.112 33.2276 25.0213 32.9076 24.84C32.5876 24.6587 32.353 24.4187 32.2036 24.12C32.0543 23.8107 31.9796 23.4747 31.9796 23.112C31.9796 22.6533 32.081 22.28 32.2836 21.992C32.497 21.704 32.769 21.4693 33.0996 21.288C33.4303 21.1067 33.777 20.9573 34.1396 20.84C34.513 20.7227 34.865 20.6107 35.1956 20.504C35.537 20.3867 35.809 20.2533 36.0116 20.104C36.225 19.944 36.3316 19.7413 36.3316 19.496V18.248C36.3316 17.9707 36.2836 17.7253 36.1876 17.512C36.1023 17.288 35.9636 17.1173 35.7716 17C35.5903 16.8827 35.3503 16.824 35.0516 16.824C34.8383 16.824 34.625 16.856 34.4116 16.92C34.1983 16.9733 34.0223 17.0693 33.8836 17.208C34.1823 17.3147 34.4116 17.48 34.5716 17.704C34.7423 17.9173 34.8276 18.1627 34.8276 18.44C34.8276 18.8027 34.6996 19.0907 34.4436 19.304C34.1983 19.5173 33.905 19.624 33.5636 19.624C33.1796 19.624 32.8863 19.5067 32.6836 19.272C32.4916 19.0267 32.3956 18.7333 32.3956 18.392C32.3956 18.0827 32.4703 17.8267 32.6196 17.624C32.7796 17.4213 32.9983 17.2293 33.2756 17.048C33.5743 16.8773 33.9316 16.744 34.3476 16.648C34.7743 16.552 35.233 16.504 35.7236 16.504C36.2143 16.504 36.657 16.5573 37.0516 16.664C37.4463 16.76 37.777 16.9413 38.0436 17.208C38.289 17.4533 38.449 17.7573 38.5236 18.12C38.5983 18.472 38.6356 18.92 38.6356 19.464V23.816C38.6356 24.0827 38.6623 24.2693 38.7156 24.376C38.769 24.472 38.8596 24.52 38.9876 24.52C39.0836 24.52 39.1743 24.4933 39.2596 24.44C39.3556 24.3867 39.457 24.3227 39.5636 24.248L39.7236 24.52C39.4996 24.712 39.2383 24.8613 38.9396 24.968C38.6516 25.064 38.3263 25.112 37.9636 25.112C37.569 25.112 37.2543 25.0587 37.0196 24.952C36.785 24.8347 36.6143 24.68 36.5076 24.488C36.4116 24.296 36.3636 24.072 36.3636 23.816C36.1076 24.2213 35.7983 24.5413 35.4356 24.776C35.073 25 34.6303 25.112 34.1076 25.112ZM35.2436 24.088C35.457 24.088 35.649 24.04 35.8196 23.944C36.001 23.8373 36.1716 23.6667 36.3316 23.432V20.152C36.2356 20.312 36.1023 20.456 35.9316 20.584C35.761 20.712 35.5796 20.8453 35.3876 20.984C35.1956 21.112 35.009 21.256 34.8276 21.416C34.657 21.576 34.5183 21.7733 34.4116 22.008C34.305 22.2427 34.2516 22.5253 34.2516 22.856C34.2516 23.272 34.3423 23.5813 34.5236 23.784C34.705 23.9867 34.945 24.088 35.2436 24.088ZM46.1329 16.504C46.5809 16.504 46.9435 16.5627 47.2209 16.68C47.5089 16.7867 47.7329 16.936 47.8929 17.128C48.0635 17.3307 48.1862 17.592 48.2609 17.912C48.3462 18.232 48.3889 18.664 48.3889 19.208V23.512C48.3889 23.96 48.4635 24.264 48.6129 24.424C48.7729 24.584 49.0395 24.664 49.4129 24.664V25C49.2102 24.9893 48.9062 24.9787 48.5009 24.968C48.0955 24.9467 47.6955 24.936 47.3009 24.936C46.8955 24.936 46.4955 24.9467 46.1009 24.968C45.7169 24.9787 45.4235 24.9893 45.2209 25V24.664C45.5409 24.664 45.7649 24.584 45.8929 24.424C46.0209 24.264 46.0849 23.96 46.0849 23.512V18.536C46.0849 18.2693 46.0582 18.04 46.0049 17.848C45.9515 17.6453 45.8555 17.4907 45.7169 17.384C45.5782 17.2667 45.3702 17.208 45.0929 17.208C44.8049 17.208 44.5382 17.288 44.2929 17.448C44.0582 17.608 43.8662 17.832 43.7169 18.12C43.5782 18.3973 43.5089 18.712 43.5089 19.064V23.512C43.5089 23.96 43.5729 24.264 43.7009 24.424C43.8395 24.584 44.0635 24.664 44.3729 24.664V25C44.1809 24.9893 43.8982 24.9787 43.5249 24.968C43.1622 24.9467 42.7835 24.936 42.3889 24.936C41.9835 24.936 41.5675 24.9467 41.1409 24.968C40.7142 24.9787 40.3942 24.9893 40.1809 25V24.664C40.5542 24.664 40.8155 24.584 40.9649 24.424C41.1249 24.264 41.2049 23.96 41.2049 23.512V18.472C41.2049 17.992 41.1302 17.64 40.9809 17.416C40.8422 17.1813 40.5755 17.064 40.1809 17.064V16.728C40.5222 16.76 40.8529 16.776 41.1729 16.776C41.6209 16.776 42.0369 16.76 42.4209 16.728C42.8155 16.6853 43.1782 16.6267 43.5089 16.552V17.992C43.7755 17.448 44.1382 17.064 44.5969 16.84C45.0555 16.616 45.5675 16.504 46.1329 16.504ZM51.1384 13.448C51.405 13.448 51.6344 13.496 51.8264 13.592C52.0184 13.688 52.1677 13.8267 52.2744 14.008C52.3917 14.1573 52.477 14.3547 52.5304 14.6C52.5944 14.8453 52.6264 15.0907 52.6264 15.336C52.6264 15.8693 52.4877 16.3653 52.2104 16.824C51.9437 17.272 51.5224 17.6293 50.9464 17.896L50.8024 17.608C51.101 17.48 51.3677 17.2827 51.6024 17.016C51.837 16.7493 51.9757 16.4773 52.0184 16.2C52.0717 15.9653 52.0717 15.7413 52.0184 15.528C51.7837 15.784 51.4744 15.912 51.0904 15.912C50.717 15.912 50.413 15.8053 50.1784 15.592C49.9437 15.368 49.8264 15.064 49.8264 14.68C49.8264 14.3067 49.949 14.008 50.1944 13.784C50.4504 13.56 50.765 13.448 51.1384 13.448ZM56.6614 16.504C57.1094 16.504 57.4987 16.5627 57.8294 16.68C58.1707 16.7867 58.416 16.8933 58.5654 17C58.928 17.2453 59.152 17.0853 59.2374 16.52H59.5734C59.552 16.8187 59.536 17.1867 59.5254 17.624C59.5147 18.0507 59.5094 18.6213 59.5094 19.336H59.1734C59.12 18.9413 59.0187 18.552 58.8694 18.168C58.72 17.784 58.5014 17.4693 58.2134 17.224C57.936 16.9787 57.5734 16.856 57.1254 16.856C56.816 16.856 56.5547 16.9467 56.3414 17.128C56.128 17.2987 56.0214 17.5493 56.0214 17.88C56.0214 18.2 56.1174 18.4827 56.3094 18.728C56.5014 18.9627 56.7467 19.192 57.0454 19.416C57.3547 19.6293 57.6747 19.8587 58.0054 20.104C58.3574 20.3707 58.6774 20.6373 58.9654 20.904C59.2534 21.16 59.4827 21.4427 59.6534 21.752C59.824 22.0613 59.9094 22.4293 59.9094 22.856C59.9094 23.336 59.7707 23.7573 59.4934 24.12C59.216 24.472 58.848 24.744 58.3894 24.936C57.9414 25.128 57.44 25.224 56.8854 25.224C56.5654 25.224 56.2774 25.192 56.0214 25.128C55.776 25.064 55.5627 24.984 55.3814 24.888C55.2427 24.824 55.1094 24.7653 54.9814 24.712C54.864 24.648 54.752 24.5947 54.6454 24.552C54.5387 24.52 54.4427 24.5573 54.3574 24.664C54.2827 24.7707 54.224 24.92 54.1814 25.112H53.8454C53.8667 24.7707 53.8827 24.3547 53.8934 23.864C53.904 23.3733 53.9094 22.7227 53.9094 21.912H54.2454C54.3094 22.488 54.4267 23 54.5974 23.448C54.768 23.8853 54.9974 24.232 55.2854 24.488C55.584 24.7333 55.9574 24.856 56.4054 24.856C56.5867 24.856 56.7627 24.8187 56.9334 24.744C57.104 24.6693 57.2427 24.5467 57.3494 24.376C57.4667 24.2053 57.5254 23.9867 57.5254 23.72C57.5254 23.2507 57.3707 22.8613 57.0614 22.552C56.7627 22.2427 56.3787 21.9067 55.9094 21.544C55.568 21.2667 55.2427 20.9947 54.9334 20.728C54.6347 20.4507 54.3894 20.152 54.1974 19.832C54.0054 19.5013 53.9094 19.128 53.9094 18.712C53.9094 18.232 54.0374 17.8267 54.2934 17.496C54.5494 17.1653 54.8854 16.92 55.3014 16.76C55.728 16.5893 56.1814 16.504 56.6614 16.504Z" fill="#F8F8F8"/>
<path d="M79.0568 13.672V13.992C78.7154 14.0347 78.4594 14.1253 78.2888 14.264C78.1181 14.392 78.0008 14.6 77.9368 14.888C77.8834 15.176 77.8568 15.5813 77.8568 16.104V25.032C77.7288 25.0213 77.5954 25.016 77.4568 25.016C77.3288 25.016 77.1901 25.0213 77.0408 25.032L70.0968 16.232V22.376C70.0968 22.9627 70.1288 23.416 70.1928 23.736C70.2568 24.0453 70.3954 24.2693 70.6088 24.408C70.8328 24.536 71.1794 24.6267 71.6488 24.68V25C71.4461 24.9787 71.1794 24.968 70.8488 24.968C70.5181 24.9573 70.2088 24.952 69.9208 24.952C69.6754 24.952 69.4248 24.9573 69.1688 24.968C68.9128 24.968 68.6994 24.9787 68.5288 25V24.68C68.8701 24.6267 69.1261 24.536 69.2968 24.408C69.4674 24.28 69.5794 24.072 69.6328 23.784C69.6968 23.4853 69.7288 23.08 69.7288 22.568V15.368C69.7288 14.9733 69.6968 14.6853 69.6328 14.504C69.5794 14.312 69.4621 14.184 69.2808 14.12C69.1101 14.0453 68.8594 14.0027 68.5288 13.992V13.672C68.6994 13.6827 68.9128 13.6933 69.1688 13.704C69.4248 13.7147 69.6754 13.72 69.9208 13.72C70.1768 13.72 70.4221 13.7147 70.6568 13.704C70.8914 13.6933 71.1048 13.6827 71.2968 13.672L77.4888 21.304V16.296C77.4888 15.7093 77.4568 15.2613 77.3928 14.952C77.3288 14.632 77.1848 14.4027 76.9608 14.264C76.7474 14.1253 76.4061 14.0347 75.9368 13.992V13.672C76.1394 13.6827 76.4061 13.6933 76.7368 13.704C77.0674 13.7147 77.3768 13.72 77.6648 13.72C77.9208 13.72 78.1714 13.7147 78.4168 13.704C78.6728 13.6933 78.8861 13.6827 79.0568 13.672ZM83.7151 16.504C84.6538 16.504 85.3898 16.7813 85.9231 17.336C86.4565 17.8907 86.7231 18.7973 86.7231 20.056H81.4591L81.4271 19.752H84.7071C84.7178 19.2293 84.6858 18.7493 84.6111 18.312C84.5365 17.864 84.4191 17.5067 84.2591 17.24C84.0991 16.9733 83.8858 16.84 83.6191 16.84C83.2458 16.84 82.9258 17.0747 82.6591 17.544C82.4031 18.0133 82.2485 18.792 82.1951 19.88L82.2431 19.976C82.2325 20.104 82.2218 20.2373 82.2111 20.376C82.2111 20.5147 82.2111 20.6587 82.2111 20.808C82.2111 21.544 82.3125 22.1413 82.5151 22.6C82.7285 23.0587 82.9951 23.3947 83.3151 23.608C83.6351 23.8107 83.9605 23.912 84.2911 23.912C84.5151 23.912 84.7445 23.88 84.9791 23.816C85.2245 23.7413 85.4698 23.6133 85.7151 23.432C85.9605 23.24 86.1898 22.9733 86.4031 22.632L86.6911 22.728C86.5631 23.1333 86.3605 23.528 86.0831 23.912C85.8058 24.296 85.4538 24.6107 85.0271 24.856C84.6005 25.1013 84.0885 25.224 83.4911 25.224C82.7658 25.224 82.1258 25.0693 81.5711 24.76C81.0165 24.4507 80.5791 23.9813 80.2591 23.352C79.9498 22.7227 79.7951 21.9227 79.7951 20.952C79.7951 19.96 79.9605 19.1333 80.2911 18.472C80.6325 17.8107 81.0965 17.32 81.6831 17C82.2805 16.6693 82.9578 16.504 83.7151 16.504ZM91.3494 16.728V17.064C91.1147 17.064 90.9067 17.08 90.7254 17.112C90.5547 17.1333 90.4374 17.208 90.3734 17.336C90.32 17.464 90.3414 17.672 90.4374 17.96L91.9574 22.712L91.7494 22.936L93.6214 16.712L93.9414 16.856L91.4934 25.032C91.3227 25.0213 91.152 25.016 90.9814 25.016C90.8107 25.016 90.6347 25.0213 90.4534 25.032L87.9254 17.96C87.776 17.5333 87.6107 17.2773 87.4294 17.192C87.2587 17.1067 87.1147 17.064 86.9974 17.064V16.728C87.3387 16.76 87.6907 16.7867 88.0534 16.808C88.4267 16.8187 88.832 16.824 89.2694 16.824C89.6 16.824 89.9467 16.8133 90.3094 16.792C90.6827 16.7707 91.0294 16.7493 91.3494 16.728ZM99.7014 16.728V17.048C99.4987 17.1013 99.3067 17.224 99.1254 17.416C98.944 17.608 98.7734 17.944 98.6134 18.424L96.4854 25.032C96.3147 25.0213 96.1387 25.016 95.9574 25.016C95.7867 25.016 95.616 25.0213 95.4454 25.032L93.1894 18.872L93.6214 16.712C93.8134 16.7227 94.0054 16.728 94.1974 16.728C94.4 16.7173 94.5974 16.712 94.7894 16.712L96.9814 23.176L96.8054 23L97.8774 19.608C98.0587 19.0213 98.128 18.5467 98.0854 18.184C98.0427 17.8213 97.9147 17.5493 97.7014 17.368C97.488 17.1867 97.2 17.08 96.8374 17.048V16.728C97.008 16.7387 97.1894 16.7493 97.3814 16.76C97.584 16.76 97.7814 16.7653 97.9734 16.776C98.176 16.776 98.3467 16.776 98.4854 16.776C98.6987 16.776 98.9174 16.7707 99.1414 16.76C99.376 16.7493 99.5627 16.7387 99.7014 16.728ZM103.068 16.504C103.516 16.504 103.905 16.5627 104.236 16.68C104.577 16.7867 104.822 16.8933 104.972 17C105.334 17.2453 105.558 17.0853 105.644 16.52H105.98C105.958 16.8187 105.942 17.1867 105.932 17.624C105.921 18.0507 105.916 18.6213 105.916 19.336H105.58C105.526 18.9413 105.425 18.552 105.276 18.168C105.126 17.784 104.908 17.4693 104.62 17.224C104.342 16.9787 103.98 16.856 103.532 16.856C103.222 16.856 102.961 16.9467 102.748 17.128C102.534 17.2987 102.428 17.5493 102.428 17.88C102.428 18.2 102.524 18.4827 102.716 18.728C102.908 18.9627 103.153 19.192 103.452 19.416C103.761 19.6293 104.081 19.8587 104.412 20.104C104.764 20.3707 105.084 20.6373 105.372 20.904C105.66 21.16 105.889 21.4427 106.06 21.752C106.23 22.0613 106.316 22.4293 106.316 22.856C106.316 23.336 106.177 23.7573 105.9 24.12C105.622 24.472 105.254 24.744 104.796 24.936C104.348 25.128 103.846 25.224 103.292 25.224C102.972 25.224 102.684 25.192 102.428 25.128C102.182 25.064 101.969 24.984 101.788 24.888C101.649 24.824 101.516 24.7653 101.388 24.712C101.27 24.648 101.158 24.5947 101.052 24.552C100.945 24.52 100.849 24.5573 100.764 24.664C100.689 24.7707 100.63 24.92 100.588 25.112H100.252C100.273 24.7707 100.289 24.3547 100.3 23.864C100.31 23.3733 100.316 22.7227 100.316 21.912H100.652C100.716 22.488 100.833 23 101.004 23.448C101.174 23.8853 101.404 24.232 101.692 24.488C101.99 24.7333 102.364 24.856 102.812 24.856C102.993 24.856 103.169 24.8187 103.34 24.744C103.51 24.6693 103.649 24.5467 103.756 24.376C103.873 24.2053 103.932 23.9867 103.932 23.72C103.932 23.2507 103.777 22.8613 103.468 22.552C103.169 22.2427 102.785 21.9067 102.316 21.544C101.974 21.2667 101.649 20.9947 101.34 20.728C101.041 20.4507 100.796 20.152 100.604 19.832C100.412 19.5013 100.316 19.128 100.316 18.712C100.316 18.232 100.444 17.8267 100.7 17.496C100.956 17.1653 101.292 16.92 101.708 16.76C102.134 16.5893 102.588 16.504 103.068 16.504Z" fill="#343434"/>
<path d="M114.919 13.672C115.186 13.6827 115.543 13.6933 115.991 13.704C116.45 13.7147 116.903 13.72 117.351 13.72C117.863 13.72 118.359 13.7147 118.839 13.704C119.319 13.6933 119.66 13.688 119.863 13.688C121.346 13.688 122.455 13.9813 123.191 14.568C123.927 15.1547 124.295 15.912 124.295 16.84C124.295 17.224 124.22 17.6293 124.071 18.056C123.922 18.472 123.666 18.8613 123.303 19.224C122.951 19.576 122.466 19.864 121.847 20.088C121.228 20.312 120.45 20.424 119.511 20.424H117.879V20.104H119.351C119.98 20.104 120.455 19.96 120.775 19.672C121.106 19.384 121.33 19.0053 121.447 18.536C121.575 18.0667 121.639 17.56 121.639 17.016C121.639 16.0027 121.49 15.2453 121.191 14.744C120.892 14.2427 120.38 13.992 119.655 13.992C119.239 13.992 118.967 14.0827 118.839 14.264C118.722 14.4453 118.663 14.8133 118.663 15.368V23.208C118.663 23.624 118.706 23.9333 118.791 24.136C118.876 24.3387 119.042 24.472 119.287 24.536C119.532 24.6 119.895 24.6373 120.375 24.648V25C120.044 24.9893 119.618 24.9787 119.095 24.968C118.572 24.9573 118.023 24.952 117.447 24.952C116.988 24.952 116.54 24.9573 116.103 24.968C115.666 24.9787 115.271 24.9893 114.919 25V24.68C115.26 24.6587 115.516 24.616 115.687 24.552C115.858 24.488 115.97 24.36 116.023 24.168C116.087 23.976 116.119 23.688 116.119 23.304V15.368C116.119 14.9733 116.087 14.6853 116.023 14.504C115.97 14.312 115.852 14.184 115.671 14.12C115.5 14.0453 115.25 14.0027 114.919 13.992V13.672ZM128.887 16.504C129.666 16.504 130.348 16.648 130.935 16.936C131.522 17.224 131.98 17.688 132.311 18.328C132.642 18.968 132.807 19.816 132.807 20.872C132.807 21.928 132.642 22.776 132.311 23.416C131.98 24.0453 131.522 24.504 130.935 24.792C130.348 25.08 129.666 25.224 128.887 25.224C128.13 25.224 127.452 25.08 126.855 24.792C126.268 24.504 125.804 24.0453 125.463 23.416C125.132 22.776 124.967 21.928 124.967 20.872C124.967 19.816 125.132 18.968 125.463 18.328C125.804 17.688 126.268 17.224 126.855 16.936C127.452 16.648 128.13 16.504 128.887 16.504ZM128.887 16.824C128.46 16.824 128.103 17.144 127.815 17.784C127.527 18.4133 127.383 19.4427 127.383 20.872C127.383 22.3013 127.527 23.3307 127.815 23.96C128.103 24.5893 128.46 24.904 128.887 24.904C129.324 24.904 129.682 24.5893 129.959 23.96C130.247 23.3307 130.391 22.3013 130.391 20.872C130.391 19.4427 130.247 18.4133 129.959 17.784C129.682 17.144 129.324 16.824 128.887 16.824ZM139.31 16.504C139.651 16.504 139.929 16.5787 140.142 16.728C140.355 16.8667 140.51 17.048 140.606 17.272C140.713 17.496 140.766 17.7307 140.766 17.976C140.766 18.3707 140.649 18.696 140.414 18.952C140.19 19.1973 139.891 19.32 139.518 19.32C139.145 19.32 138.851 19.2293 138.638 19.048C138.435 18.856 138.334 18.6053 138.334 18.296C138.334 17.9973 138.398 17.752 138.526 17.56C138.665 17.3573 138.835 17.1867 139.038 17.048C138.889 17.0053 138.739 17.0107 138.59 17.064C138.387 17.096 138.195 17.1813 138.014 17.32C137.833 17.448 137.678 17.6133 137.55 17.816C137.422 18.008 137.321 18.2213 137.246 18.456C137.171 18.68 137.134 18.8987 137.134 19.112V23.352C137.134 23.864 137.257 24.2107 137.502 24.392C137.758 24.5733 138.137 24.664 138.638 24.664V25C138.393 24.9893 138.035 24.9787 137.566 24.968C137.097 24.9467 136.606 24.936 136.094 24.936C135.667 24.936 135.235 24.9467 134.798 24.968C134.361 24.9787 134.03 24.9893 133.806 25V24.664C134.179 24.664 134.441 24.584 134.59 24.424C134.75 24.264 134.83 23.96 134.83 23.512V18.472C134.83 17.992 134.755 17.64 134.606 17.416C134.467 17.1813 134.201 17.064 133.806 17.064V16.728C134.147 16.76 134.478 16.776 134.798 16.776C135.246 16.776 135.662 16.76 136.046 16.728C136.441 16.6853 136.803 16.6267 137.134 16.552V18.04C137.262 17.752 137.433 17.4907 137.646 17.256C137.859 17.0213 138.105 16.84 138.382 16.712C138.659 16.5733 138.969 16.504 139.31 16.504ZM144.523 14.104V16.728H146.411V17.048H144.523V23.512C144.523 23.832 144.581 24.0613 144.699 24.2C144.816 24.328 144.992 24.392 145.227 24.392C145.419 24.392 145.611 24.3227 145.803 24.184C145.995 24.0347 146.165 23.784 146.315 23.432L146.587 23.576C146.416 24.056 146.155 24.4507 145.803 24.76C145.461 25.0693 144.992 25.224 144.395 25.224C144.043 25.224 143.733 25.176 143.467 25.08C143.2 24.9947 142.976 24.8613 142.795 24.68C142.56 24.4453 142.405 24.1573 142.331 23.816C142.256 23.464 142.219 23.0107 142.219 22.456V17.048H140.875V16.728H142.219V14.616C142.667 14.616 143.077 14.5787 143.451 14.504C143.835 14.4187 144.192 14.2853 144.523 14.104ZM149.108 25.112C148.628 25.112 148.228 25.0213 147.908 24.84C147.588 24.6587 147.353 24.4187 147.204 24.12C147.054 23.8107 146.98 23.4747 146.98 23.112C146.98 22.6533 147.081 22.28 147.284 21.992C147.497 21.704 147.769 21.4693 148.1 21.288C148.43 21.1067 148.777 20.9573 149.14 20.84C149.513 20.7227 149.865 20.6107 150.196 20.504C150.537 20.3867 150.809 20.2533 151.012 20.104C151.225 19.944 151.332 19.7413 151.332 19.496V18.248C151.332 17.9707 151.284 17.7253 151.188 17.512C151.102 17.288 150.964 17.1173 150.772 17C150.59 16.8827 150.35 16.824 150.052 16.824C149.838 16.824 149.625 16.856 149.412 16.92C149.198 16.9733 149.022 17.0693 148.884 17.208C149.182 17.3147 149.412 17.48 149.572 17.704C149.742 17.9173 149.828 18.1627 149.828 18.44C149.828 18.8027 149.7 19.0907 149.444 19.304C149.198 19.5173 148.905 19.624 148.564 19.624C148.18 19.624 147.886 19.5067 147.684 19.272C147.492 19.0267 147.396 18.7333 147.396 18.392C147.396 18.0827 147.47 17.8267 147.62 17.624C147.78 17.4213 147.998 17.2293 148.276 17.048C148.574 16.8773 148.932 16.744 149.348 16.648C149.774 16.552 150.233 16.504 150.724 16.504C151.214 16.504 151.657 16.5573 152.052 16.664C152.446 16.76 152.777 16.9413 153.044 17.208C153.289 17.4533 153.449 17.7573 153.524 18.12C153.598 18.472 153.636 18.92 153.636 19.464V23.816C153.636 24.0827 153.662 24.2693 153.716 24.376C153.769 24.472 153.86 24.52 153.988 24.52C154.084 24.52 154.174 24.4933 154.26 24.44C154.356 24.3867 154.457 24.3227 154.564 24.248L154.724 24.52C154.5 24.712 154.238 24.8613 153.94 24.968C153.652 25.064 153.326 25.112 152.964 25.112C152.569 25.112 152.254 25.0587 152.02 24.952C151.785 24.8347 151.614 24.68 151.508 24.488C151.412 24.296 151.364 24.072 151.364 23.816C151.108 24.2213 150.798 24.5413 150.436 24.776C150.073 25 149.63 25.112 149.108 25.112ZM150.244 24.088C150.457 24.088 150.649 24.04 150.82 23.944C151.001 23.8373 151.172 23.6667 151.332 23.432V20.152C151.236 20.312 151.102 20.456 150.932 20.584C150.761 20.712 150.58 20.8453 150.388 20.984C150.196 21.112 150.009 21.256 149.828 21.416C149.657 21.576 149.518 21.7733 149.412 22.008C149.305 22.2427 149.252 22.5253 149.252 22.856C149.252 23.272 149.342 23.5813 149.524 23.784C149.705 23.9867 149.945 24.088 150.244 24.088ZM158.445 12.472V23.512C158.445 23.96 158.52 24.264 158.669 24.424C158.829 24.584 159.096 24.664 159.469 24.664V25C159.266 24.9893 158.962 24.9787 158.557 24.968C158.152 24.9467 157.741 24.936 157.325 24.936C156.909 24.936 156.488 24.9467 156.061 24.968C155.645 24.9787 155.33 24.9893 155.117 25V24.664C155.49 24.664 155.752 24.584 155.901 24.424C156.061 24.264 156.141 23.96 156.141 23.512V14.392C156.141 13.912 156.066 13.56 155.917 13.336C155.778 13.1013 155.512 12.984 155.117 12.984V12.648C155.458 12.68 155.789 12.696 156.109 12.696C156.546 12.696 156.962 12.68 157.357 12.648C157.752 12.6053 158.114 12.5467 158.445 12.472Z" fill="#5D5FEF"/>
</svg>
